<svg width="32" height="33" viewBox="0 0 32 33" fill="none" xmlns="http://www.w3.org/2000/svg">
<path d="M23 23.5H8.725L5.2375 4.325C5.1967 4.09537 5.07691 3.88722 4.89887 3.73657C4.72082 3.58592 4.49572 3.50223 4.2625 3.5H2" stroke="white" stroke-width="2" stroke-linecap="round" stroke-linejoin="round"/>
<path d="M10 28.5C11.3807 28.5 12.5 27.3807 12.5 26C12.5 24.6193 11.3807 23.5 10 23.5C8.61929 23.5 7.5 24.6193 7.5 26C7.5 27.3807 8.61929 28.5 10 28.5Z" stroke="white" stroke-width="2" stroke-linecap="round" stroke-linejoin="round"/>
<path d="M23 28.5C24.3807 28.5 25.5 27.3807 25.5 26C25.5 24.6193 24.3807 23.5 23 23.5C21.6193 23.5 20.5 24.6193 20.5 26C20.5 27.3807 21.6193 28.5 23 28.5Z" stroke="white" stroke-width="2" stroke-linecap="round" stroke-linejoin="round"/>
<path d="M7.8125 18.5H23.5125C23.98 18.5014 24.433 18.338 24.7919 18.0386C25.1508 17.7391 25.3927 17.3227 25.475 16.8625L27 8.5H6" stroke="white" stroke-width="2" stroke-linecap="round" stroke-linejoin="round"/>
</svg>
