<svg width="33" height="32" viewBox="0 0 33 32" fill="none" xmlns="http://www.w3.org/2000/svg">
<path d="M27.5 7H5.5" stroke="white" stroke-width="2" stroke-linecap="round" stroke-linejoin="round"/>
<path d="M13.5 13V21" stroke="white" stroke-width="2" stroke-linecap="round" stroke-linejoin="round"/>
<path d="M19.5 13V21" stroke="white" stroke-width="2" stroke-linecap="round" stroke-linejoin="round"/>
<path d="M25.5 7V26C25.5 26.2652 25.3946 26.5196 25.2071 26.7071C25.0196 26.8946 24.7652 27 24.5 27H8.5C8.23478 27 7.98043 26.8946 7.79289 26.7071C7.60536 26.5196 7.5 26.2652 7.5 26V7" stroke="white" stroke-width="2" stroke-linecap="round" stroke-linejoin="round"/>
<path d="M21.5 7V5C21.5 4.46957 21.2893 3.96086 20.9142 3.58579C20.5391 3.21071 20.0304 3 19.5 3H13.5C12.9696 3 12.4609 3.21071 12.0858 3.58579C11.7107 3.96086 11.5 4.46957 11.5 5V7" stroke="white" stroke-width="2" stroke-linecap="round" stroke-linejoin="round"/>
</svg>
